<?xml version='1.0' encoding='UTF-8' standalone='no'?>
<!-- Created with Fritzing (https://fritzing.org/) -->
<svg xmlns="http://www.w3.org/2000/svg" width="2.02701in" xmlns:svg="http://www.w3.org/2000/svg"  y="0in" version="1.2" baseProfile="tiny" x="0in" viewBox="0 0 145.945 173.278" height="2.40664in">
 <g id="watermark" >
  <g >
   <g >
    <path  d="M121.213,167.078c-0.604,0,-1.131,0.325,-1.422,0.809l-2.796,0l3.96,-4.071c0.146,-0.146,0.289,-0.322,0.428,-0.521c0.149,-0.222,0.228,-0.479,0.228,-0.768c0,-0.279,-0.097,-0.518,-0.287,-0.71c-0.19,-0.188,-0.444,-0.287,-0.754,-0.287l-4.636,0c-0.305,0,-0.555,0.06,-0.742,0.17c-0.219,0.13,-0.33,0.368,-0.33,0.707c0,0.329,0.111,0.562,0.33,0.692c0.188,0.111,0.438,0.168,0.742,0.168l3.148,0l-3.974,4.086c-0.146,0.147,-0.289,0.315,-0.425,0.504c-0.153,0.212,-0.23,0.472,-0.23,0.771c0,0.28,0.096,0.521,0.288,0.711c0.188,0.188,0.442,0.285,0.754,0.285l4.315,0c0.293,0.467,0.812,0.776,1.4,0.776c0.916,0,1.66,-0.744,1.66,-1.661C122.872,167.823,122.127,167.078,121.213,167.078zM121.213,169.341c-0.334,0,-0.604,-0.271,-0.604,-0.604c0,-0.333,0.27,-0.604,0.604,-0.604c0.332,0,0.604,0.271,0.604,0.604C121.816,169.072,121.545,169.341,121.213,169.341z" fill="#8C8C8C"/>
    <path  d="M104.27,157.036c-0.914,0,-1.659,0.745,-1.659,1.66c0,0.916,0.745,1.66,1.659,1.66s1.658,-0.744,1.658,-1.66C105.93,157.781,105.186,157.036,104.27,157.036zM104.271,159.299c-0.333,0,-0.604,-0.27,-0.604,-0.603s0.271,-0.603,0.604,-0.603c0.331,0,0.604,0.27,0.604,0.603S104.602,159.299,104.271,159.299z" fill="#8C8C8C"/>
    <path  d="M112.791,161.698c-0.193,-0.111,-0.439,-0.169,-0.732,-0.169l-1.465,0L110.594,159.007c0,-0.292,-0.057,-0.538,-0.166,-0.729C110.338,158.121,110.145,157.936,109.735,157.936c-0.34,0,-0.578,0.116,-0.709,0.342c-0.109,0.193,-0.167,0.438,-0.167,0.729l0,2.521l-0.481,0c-0.295,0,-0.539,0.06,-0.731,0.169c-0.228,0.129,-0.341,0.368,-0.341,0.708c0,0.412,0.185,0.603,0.341,0.692c0.192,0.111,0.438,0.168,0.731,0.168l0.481,0l0,4.362c0,0.277,0.026,0.533,0.081,0.768c0.056,0.246,0.154,0.464,0.298,0.645c0.146,0.186,0.345,0.332,0.595,0.436c0.241,0.098,0.555,0.146,0.93,0.146l0.896,0c0.292,0,0.539,-0.054,0.731,-0.166c0.154,-0.089,0.341,-0.281,0.341,-0.693c0,-0.338,-0.114,-0.578,-0.341,-0.709c-0.192,-0.109,-0.439,-0.168,-0.731,-0.168l-0.821,0c-0.138,0,-0.19,-0.019,-0.207,-0.024c-0.014,-0.034,-0.035,-0.103,-0.035,-0.231L110.596,163.266l1.465,0c0.295,0,0.541,-0.057,0.734,-0.168c0.152,-0.09,0.34,-0.28,0.34,-0.692C113.131,162.066,113.018,161.827,112.791,161.698z" fill="#8C8C8C"/>
    <path  d="M104.336,161.528l-1.191,0c-0.292,0,-0.538,0.059,-0.731,0.169c-0.226,0.129,-0.341,0.368,-0.341,0.708c0,0.412,0.188,0.604,0.341,0.691c0.193,0.113,0.439,0.168,0.731,0.168l0.544,0l0,5.362c0,0.293,0.057,0.539,0.167,0.73c0.131,0.227,0.367,0.341,0.708,0.341c0.411,0,0.604,-0.187,0.692,-0.341c0.111,-0.191,0.168,-0.438,0.168,-0.73L105.424,162.616c0,-0.386,-0.084,-0.656,-0.256,-0.83C104.993,161.614,104.723,161.528,104.336,161.528z" fill="#8C8C8C"/>
    <path  d="M100.501,161.698c-0.193,-0.111,-0.44,-0.169,-0.732,-0.169l-0.604,0c-0.25,0,-0.498,0.063,-0.734,0.187c-0.226,0.119,-0.433,0.271,-0.616,0.453l-0.644,0.604l0,-0.247c0,-0.291,-0.055,-0.538,-0.168,-0.729c-0.128,-0.228,-0.368,-0.34,-0.707,-0.34c-0.41,0,-0.604,0.184,-0.693,0.34c-0.11,0.191,-0.167,0.438,-0.167,0.729l0,4.801c-0.475,0.293,-0.791,0.816,-0.791,1.412c0,0.917,0.745,1.661,1.658,1.661c0.916,0,1.66,-0.744,1.66,-1.661c0,-0.596,-0.317,-1.119,-0.792,-1.412l0,-2.21l1.738,-1.564c0.1,-0.09,0.199,-0.164,0.297,-0.217c0.084,-0.045,0.174,-0.067,0.274,-0.067l0.288,0c0.292,0,0.539,-0.056,0.732,-0.169c0.155,-0.088,0.339,-0.279,0.339,-0.691C100.841,162.066,100.726,161.827,100.501,161.698zM96.3017,169.341c-0.332,0,-0.603,-0.271,-0.603,-0.604c0,-0.333,0.271,-0.604,0.603,-0.604c0.333,0,0.604,0.271,0.604,0.604C96.9057,169.072,96.6347,169.341,96.3017,169.341z" fill="#8C8C8C"/>
    <path  d="M93.7847,158.179c-0.193,-0.111,-0.44,-0.167,-0.731,-0.167l-0.59,0c-0.2,0,-0.389,0.004,-0.562,0.016c-0.176,0.009,-0.345,0.035,-0.506,0.07c-0.168,0.041,-0.336,0.109,-0.496,0.202c-0.158,0.093,-0.319,0.222,-0.48,0.382c-0.334,0.314,-0.554,0.656,-0.652,1.017c-0.094,0.348,-0.143,0.735,-0.143,1.151l0,0.678l-0.483,0c-0.292,0,-0.539,0.059,-0.73,0.169c-0.227,0.13,-0.342,0.369,-0.342,0.708c0,0.412,0.185,0.604,0.341,0.693c0.191,0.111,0.438,0.166,0.73,0.166l0.483,0l0,5.362c0,0.293,0.057,0.539,0.167,0.73c0.13,0.227,0.367,0.341,0.708,0.341c0.411,0,0.603,-0.187,0.692,-0.341c0.111,-0.191,0.168,-0.438,0.168,-0.73l0,-5.36l0.92,0c0.293,0,0.54,-0.057,0.732,-0.168c0.155,-0.09,0.34,-0.28,0.34,-0.692c0,-0.34,-0.114,-0.579,-0.34,-0.708c-0.189,-0.111,-0.436,-0.17,-0.729,-0.17l-0.92,0l0,-0.678c0,-0.218,0.019,-0.41,0.056,-0.571c0.032,-0.141,0.103,-0.261,0.218,-0.367l0.002,-0.004l0.002,-0.002c0.082,-0.082,0.176,-0.126,0.29,-0.136c0.15,-0.015,0.339,-0.022,0.564,-0.022l0.56,0c0.291,0,0.539,-0.058,0.731,-0.168c0.154,-0.088,0.339,-0.281,0.339,-0.693C94.1247,158.548,94.0097,158.309,93.7847,158.179z" fill="#8C8C8C"/>
    <path  d="M145.778,161.796c-0.089,-0.156,-0.282,-0.34,-0.693,-0.34c-0.339,0,-0.578,0.113,-0.707,0.34c-0.078,0.133,-0.127,0.293,-0.152,0.477l-0.021,-0.021c-0.216,-0.236,-0.466,-0.42,-0.747,-0.539c-0.277,-0.119,-0.563,-0.183,-0.849,-0.183l-0.709,0c-0.249,0,-0.466,0.015,-0.64,0.041c-0.182,0.026,-0.352,0.074,-0.51,0.14c-0.158,0.066,-0.313,0.15,-0.459,0.254c-0.139,0.097,-0.303,0.226,-0.486,0.377c-0.188,0.156,-0.342,0.302,-0.463,0.434c-0.127,0.141,-0.23,0.293,-0.306,0.455c-0.069,0.16,-0.122,0.337,-0.147,0.523c-0.026,0.178,-0.041,0.391,-0.041,0.631l0,2.386c0,0.24,0.015,0.451,0.041,0.631c0.025,0.188,0.078,0.361,0.147,0.521c0.074,0.164,0.179,0.318,0.306,0.457c0.119,0.129,0.274,0.274,0.463,0.433c0.186,0.153,0.35,0.28,0.486,0.379c0.146,0.103,0.299,0.188,0.459,0.254c0.158,0.065,0.329,0.112,0.51,0.14c0.174,0.026,0.389,0.039,0.64,0.039l0.709,0c0.298,0,0.591,-0.066,0.87,-0.199c0.244,-0.114,0.492,-0.291,0.73,-0.523l0,1.434c0,0.18,-0.025,0.334,-0.072,0.465c-0.043,0.119,-0.159,0.258,-0.344,0.406c-0.154,0.127,-0.309,0.217,-0.457,0.264c-0.15,0.049,-0.341,0.074,-0.563,0.074l-2.203,0c-0.293,0,-0.538,0.055,-0.732,0.166c-0.152,0.088,-0.34,0.282,-0.34,0.692c0,0.341,0.115,0.579,0.34,0.71c0.194,0.109,0.439,0.167,0.732,0.167l2.326,0c0.247,0,0.463,-0.015,0.638,-0.041c0.179,-0.026,0.351,-0.073,0.513,-0.14c0.153,-0.064,0.31,-0.15,0.455,-0.254c0.143,-0.101,0.305,-0.227,0.487,-0.379c0.185,-0.153,0.343,-0.299,0.463,-0.431c0.128,-0.141,0.229,-0.294,0.304,-0.456c0.071,-0.162,0.123,-0.338,0.148,-0.523c0.025,-0.182,0.041,-0.393,0.041,-0.631l0,-7.898C145.945,162.234,145.891,161.987,145.778,161.796zM144.209,166.256c0,0.188,-0.062,0.35,-0.188,0.49c-0.15,0.172,-0.394,0.403,-0.716,0.686l-0.002,0.003l-0.002,0.004c-0.139,0.13,-0.291,0.237,-0.453,0.325c-0.148,0.082,-0.325,0.121,-0.526,0.121L142.021,167.885c-0.222,0,-0.41,-0.021,-0.563,-0.072c-0.148,-0.049,-0.301,-0.137,-0.453,-0.264c-0.231,-0.186,-0.315,-0.322,-0.346,-0.404c-0.049,-0.131,-0.072,-0.285,-0.072,-0.465l0,-2.206c0,-0.18,0.023,-0.336,0.072,-0.467c0.029,-0.082,0.113,-0.217,0.346,-0.403c0.152,-0.127,0.305,-0.216,0.453,-0.265c0.153,-0.049,0.342,-0.072,0.563,-0.072l0.301,0c0.212,0,0.388,0.037,0.526,0.113c0.152,0.082,0.308,0.191,0.457,0.324c0.322,0.293,0.564,0.529,0.716,0.7c0.128,0.146,0.188,0.304,0.188,0.492L144.209,166.256z" fill="#8C8C8C"/>
    <path  d="M125.799,157.036c-0.914,0,-1.66,0.745,-1.66,1.66c0,0.916,0.746,1.66,1.66,1.66s1.66,-0.744,1.66,-1.66C127.459,157.781,126.713,157.036,125.799,157.036zM125.799,159.299c-0.332,0,-0.604,-0.27,-0.604,-0.603s0.271,-0.603,0.604,-0.603s0.604,0.27,0.604,0.603C126.403,159.029,126.131,159.299,125.799,159.299z" fill="#8C8C8C"/>
    <path  d="M136.485,167.304l-0.107,-3.419c-0.011,-0.178,-0.021,-0.338,-0.031,-0.489c-0.01,-0.162,-0.037,-0.322,-0.082,-0.476c-0.045,-0.158,-0.11,-0.309,-0.198,-0.453c-0.093,-0.146,-0.216,-0.289,-0.37,-0.42c-0.225,-0.192,-0.443,-0.334,-0.646,-0.416c-0.207,-0.084,-0.461,-0.127,-0.754,-0.127l-1.012,0c-0.259,0,-0.501,0.058,-0.716,0.164c-0.197,0.098,-0.39,0.203,-0.572,0.315l-0.003,0.002l-0.003,0.003l-0.837,0.555l0,-0.041c0,-0.291,-0.057,-0.539,-0.168,-0.733c-0.129,-0.226,-0.367,-0.339,-0.707,-0.339c-0.411,0,-0.604,0.185,-0.693,0.339c-0.109,0.194,-0.168,0.438,-0.168,0.733l0,6.099c0,0.295,0.059,0.539,0.168,0.734c0.09,0.153,0.282,0.338,0.693,0.338c0.34,0,0.578,-0.114,0.707,-0.338c0.111,-0.195,0.168,-0.439,0.168,-0.734L131.154,164.566l1.953,-1.215c0.04,-0.024,0.082,-0.048,0.121,-0.063c0.031,-0.016,0.07,-0.025,0.115,-0.031c0.049,-0.012,0.117,-0.016,0.195,-0.016l0.362,0c0.188,0,0.334,0.021,0.435,0.059c0.082,0.029,0.143,0.076,0.18,0.143c0.05,0.078,0.08,0.18,0.098,0.303c0.02,0.139,0.034,0.309,0.045,0.504l0.096,3.097c-0.457,0.297,-0.762,0.811,-0.762,1.394c0,0.917,0.746,1.661,1.66,1.661c0.916,0,1.66,-0.744,1.66,-1.661C137.311,168.129,136.978,167.591,136.485,167.304zM135.651,169.341c-0.334,0,-0.602,-0.271,-0.602,-0.604c0,-0.333,0.268,-0.604,0.602,-0.604c0.333,0,0.604,0.271,0.604,0.604C136.256,169.072,135.984,169.341,135.651,169.341z" fill="#8C8C8C"/>
    <path  d="M125.862,161.528l-1.193,0c-0.293,0,-0.539,0.059,-0.731,0.169c-0.226,0.129,-0.341,0.368,-0.341,0.708c0,0.412,0.186,0.604,0.341,0.691c0.192,0.113,0.438,0.168,0.731,0.168l0.545,0l0,5.362c0,0.293,0.055,0.539,0.168,0.73c0.127,0.227,0.365,0.341,0.707,0.341c0.41,0,0.604,-0.187,0.691,-0.341c0.111,-0.191,0.17,-0.438,0.17,-0.73L126.95,162.616c0,-0.386,-0.085,-0.656,-0.259,-0.83C126.519,161.614,126.246,161.528,125.862,161.528z" fill="#8C8C8C"/>
   </g>
  </g>
 </g>
 <g partID="65030">
  <g transform="translate(102.561,119.936)">
   <g transform="matrix(-1,0,0,-1,0,0)">
    <g id="breadboard" >
     <rect width="0.72" id="connector0pin"  y="2.5848" x="0.36" fill="none" height="0.72"/>
     <rect width="0.72" id="connector1pin"  y="2.5848" x="29.8202" fill="none" height="0.72"/>
     <line stroke="#8C8C8C" x2="2.0952" id="connector0leg"  x1="1.0476" y1="3.6324" fill="none" y2="3.6324" stroke-width="2.0952" stroke-linecap="round"/>
     <line stroke="#8C8C8C" x2="28.805" id="connector1leg"  x1="29.8526" y1="3.6324" fill="none" y2="3.6324" stroke-width="2.0952" stroke-linecap="round"/>
     <path stroke="#8C8C8C"  d="M1.0476,3.6324l28.3666,0" fill="none" stroke-width="2.0952"/>
     <path id="body"  d="M10.2478,0.49536c-0.36,-0.1656,-0.9792,-0.2952,-1.3752,-0.2952l-1.9872,0c-0.396,0,-0.72,0.324,-0.72,0.72l0,5.35608c0,0.39672,0.324,0.72,0.72,0.72l1.9872,0c0.396,0,1.0152,-0.13608,1.3752,-0.2952l0.072,-0.03528c0.36,-0.1656,0.9792,-0.2952,1.3752,-0.2952l7.1856,0c0.39672,0,1.01448,0.13608,1.37448,0.2952l0.07272,0.03528c0.36,0.1656,0.97776,0.2952,1.3752,0.2952l1.9872,0c0.39744,0,0.72,-0.32328,0.72,-0.72L24.4102,0.92016c0,-0.396,-0.32256,-0.72,-0.72,-0.72l-1.9872,0c-0.39744,0,-1.0152,0.1368,-1.3752,0.2952l-0.07272,0.036c-0.36,0.1656,-0.97776,0.2952,-1.37448,0.2952l-7.1856,0c-0.396,0,-1.0152,-0.1368,-1.3752,-0.2952L10.2478,0.49536z" fill="#D9B477"/>
     <rect width="0.70272" id="gold_band"  y="0.19368" x="22.019" fill="#ad9f4e" height="6.79536"/>
     <rect width="1.8504" id="band_rd_multiplier"  y="0.82656" x="16.1726" fill="#8a3d06" height="5.5368"/>
     <rect width="1.8504" id="band_2_nd"  y="0.82656" x="12.4726" fill="#c40808" height="5.5368"/>
     <path id="band_1_st"  d="M10.6286,0.63936c-0.1152,-0.036,-0.2232,-0.072,-0.3096,-0.1152l-0.072,-0.036c-0.36,-0.16488,-0.9792,-0.2952,-1.3752,-0.2952l-0.0864,0l0,6.79608l0.0864,0c0.396,0,1.0152,-0.13608,1.3752,-0.2952l0.072,-0.03528c0.0864,-0.04464,0.1944,-0.07992,0.3096,-0.1152L10.6286,0.63936z" fill="#c40808"/>
     <path id="Shadow" opacity="0.3"  d="M23.711,4.0896L23.711,4.0896c0,0.37944,-0.13032,0.69912,-0.2952,0.69912l-1.9224,0c-0.38016,0,-0.97776,-0.05616,-1.33272,-0.1224L20.088,4.65048c-0.34488,-0.0648,-0.94896,-0.1224,-1.33344,-0.1224L11.808,4.52808c-0.3816,0,-0.9792,0.0576,-1.332,0.1224l-0.072,0.01512c-0.3456,0.06552,-0.9432,0.1224,-1.332,0.1224l-0.3168,0l-1.0008,0l-0.3096,0c-0.3816,0,-0.6984,0.29376,-0.6984,0.64512l0,0.24696L6.7464,5.8392l0,0.1728c0,0.36,0.3168,0.64512,0.6984,0.64512l1.62,0c0.3816,0,0.9792,-0.1224,1.332,-0.26712l0.072,-0.02808c0.3456,-0.14112,0.9504,-0.26496,1.332,-0.26496l6.94656,0c0.37944,0,0.97704,0.12384,1.33416,0.26568l0.07416,0.02808c0.34488,0.14472,0.94464,0.26712,1.33344,0.26712l2.2248,0c0.38088,0,0.69912,-0.2952,0.69912,-0.64512L24.413,5.472L24.413,4.49928L24.413,2.65536C24.1358,2.76336,23.711,3.06576,23.711,4.0896z"/>
     <rect width="0.70272" id="ShadowExtra" opacity="0.4"  y="3.48336" x="22.019" height="3.15288"/>
     <path id="ReflexRight" opacity="0.25"  d="M19.751,1.08576c0.22968,0,0.49104,-0.1008,0.6624,-0.1728c0.2016,-0.0792,0.57672,-0.144,0.96624,-0.144l1.46088,0c0.22464,0,0.22464,0.2448,0.22464,0.3744c0,0.1296,-0.01512,0.3816,-0.22464,0.3816l-3.06,0c-0.10728,0,-0.2304,-0.1152,-0.2304,-0.22392C19.5566,1.21536,19.6286,1.08576,19.751,1.08576z" fill="#FFFFFF"/>
     <circle id="ReflexLeft" opacity="0.35"  cy="1.13616" fill="#FFFFFF" cx="6.99984" r="0.432"/>
     <rect width="0.70272" id="Reflex_gold" opacity="0.5"  y="0.42336" x="22.019" fill="#FFFF33" height="1.62"/>
     <rect width="0.70272" id="Reflex_extra" opacity="0.5"  y="0.78336" x="22.019" fill="#FFFFFF" height="0.7488"/>
    </g>
   </g>
  </g>
 </g>
 <path stroke="#8c8c8c" stroke-linejoin="round" opacity="1" d="M73.7557,116.303L55.1081,111.903" fill="none" stroke-width="2.0952" stroke-linecap="round"/>
 <path stroke="#ff0000" stroke-linejoin="round" opacity="0.3" d="M59.0012,112.822L55.1081,111.903" fill="none" stroke-width="2.0952" stroke-linecap="round"/>
 <path stroke="#8c8c8c" stroke-linejoin="round" opacity="1" d="M100.466,116.303L101.513,116.303" fill="none" stroke-width="2.0952" stroke-linecap="round"/>
 <path stroke="#ff0000" stroke-linejoin="round" opacity="0.3" d="M100.466,116.303L101.513,116.303" fill="none" stroke-width="2.0952" stroke-linecap="round"/>
 <g partID="64990">
  <g transform="translate(100.961,81.7356)">
   <g transform="matrix(-1,0,0,-1,0,0)">
    <g id="breadboard" >
     <rect width="0.72" id="connector0pin"  y="2.5848" x="0.36" fill="none" height="0.72"/>
     <rect width="0.72" id="connector1pin"  y="2.5848" x="29.8202" fill="none" height="0.72"/>
     <line stroke="#8C8C8C" x2="2.0952" id="connector0leg"  x1="1.0476" y1="3.6324" fill="none" y2="3.6324" stroke-width="2.0952" stroke-linecap="round"/>
     <line stroke="#8C8C8C" x2="28.805" id="connector1leg"  x1="29.8526" y1="3.6324" fill="none" y2="3.6324" stroke-width="2.0952" stroke-linecap="round"/>
     <path stroke="#8C8C8C"  d="M1.0476,3.6324l28.3666,0" fill="none" stroke-width="2.0952"/>
     <path id="body"  d="M10.2478,0.49536c-0.36,-0.1656,-0.9792,-0.2952,-1.3752,-0.2952l-1.9872,0c-0.396,0,-0.72,0.324,-0.72,0.72l0,5.35608c0,0.39672,0.324,0.72,0.72,0.72l1.9872,0c0.396,0,1.0152,-0.13608,1.3752,-0.2952l0.072,-0.03528c0.36,-0.1656,0.9792,-0.2952,1.3752,-0.2952l7.1856,0c0.39672,0,1.01448,0.13608,1.37448,0.2952l0.07272,0.03528c0.36,0.1656,0.97776,0.2952,1.3752,0.2952l1.9872,0c0.39744,0,0.72,-0.32328,0.72,-0.72L24.4102,0.92016c0,-0.396,-0.32256,-0.72,-0.72,-0.72l-1.9872,0c-0.39744,0,-1.0152,0.1368,-1.3752,0.2952l-0.07272,0.036c-0.36,0.1656,-0.97776,0.2952,-1.37448,0.2952l-7.1856,0c-0.396,0,-1.0152,-0.1368,-1.3752,-0.2952L10.2478,0.49536z" fill="#D9B477"/>
     <rect width="0.70272" id="gold_band"  y="0.19368" x="22.019" fill="#ad9f4e" height="6.79536"/>
     <rect width="1.8504" id="band_rd_multiplier"  y="0.82656" x="16.1726" fill="#8a3d06" height="5.5368"/>
     <rect width="1.8504" id="band_2_nd"  y="0.82656" x="12.4726" fill="#c40808" height="5.5368"/>
     <path id="band_1_st"  d="M10.6286,0.63936c-0.1152,-0.036,-0.2232,-0.072,-0.3096,-0.1152l-0.072,-0.036c-0.36,-0.16488,-0.9792,-0.2952,-1.3752,-0.2952l-0.0864,0l0,6.79608l0.0864,0c0.396,0,1.0152,-0.13608,1.3752,-0.2952l0.072,-0.03528c0.0864,-0.04464,0.1944,-0.07992,0.3096,-0.1152L10.6286,0.63936z" fill="#c40808"/>
     <path id="Shadow" opacity="0.3"  d="M23.711,4.0896L23.711,4.0896c0,0.37944,-0.13032,0.69912,-0.2952,0.69912l-1.9224,0c-0.38016,0,-0.97776,-0.05616,-1.33272,-0.1224L20.088,4.65048c-0.34488,-0.0648,-0.94896,-0.1224,-1.33344,-0.1224L11.808,4.52808c-0.3816,0,-0.9792,0.0576,-1.332,0.1224l-0.072,0.01512c-0.3456,0.06552,-0.9432,0.1224,-1.332,0.1224l-0.3168,0l-1.0008,0l-0.3096,0c-0.3816,0,-0.6984,0.29376,-0.6984,0.64512l0,0.24696L6.7464,5.8392l0,0.1728c0,0.36,0.3168,0.64512,0.6984,0.64512l1.62,0c0.3816,0,0.9792,-0.1224,1.332,-0.26712l0.072,-0.02808c0.3456,-0.14112,0.9504,-0.26496,1.332,-0.26496l6.94656,0c0.37944,0,0.97704,0.12384,1.33416,0.26568l0.07416,0.02808c0.34488,0.14472,0.94464,0.26712,1.33344,0.26712l2.2248,0c0.38088,0,0.69912,-0.2952,0.69912,-0.64512L24.413,5.472L24.413,4.49928L24.413,2.65536C24.1358,2.76336,23.711,3.06576,23.711,4.0896z"/>
     <rect width="0.70272" id="ShadowExtra" opacity="0.4"  y="3.48336" x="22.019" height="3.15288"/>
     <path id="ReflexRight" opacity="0.25"  d="M19.751,1.08576c0.22968,0,0.49104,-0.1008,0.6624,-0.1728c0.2016,-0.0792,0.57672,-0.144,0.96624,-0.144l1.46088,0c0.22464,0,0.22464,0.2448,0.22464,0.3744c0,0.1296,-0.01512,0.3816,-0.22464,0.3816l-3.06,0c-0.10728,0,-0.2304,-0.1152,-0.2304,-0.22392C19.5566,1.21536,19.6286,1.08576,19.751,1.08576z" fill="#FFFFFF"/>
     <circle id="ReflexLeft" opacity="0.35"  cy="1.13616" fill="#FFFFFF" cx="6.99984" r="0.432"/>
     <rect width="0.70272" id="Reflex_gold" opacity="0.5"  y="0.42336" x="22.019" fill="#FFFF33" height="1.62"/>
     <rect width="0.70272" id="Reflex_extra" opacity="0.5"  y="0.78336" x="22.019" fill="#FFFFFF" height="0.7488"/>
    </g>
   </g>
  </g>
 </g>
 <path stroke="#8c8c8c" stroke-linejoin="round" opacity="1" d="M72.1557,78.1032L55.3081,75.5032" fill="none" stroke-width="2.0952" stroke-linecap="round"/>
 <path stroke="#ff0000" stroke-linejoin="round" opacity="0.3" d="M59.2613,76.1133L55.3081,75.5032" fill="none" stroke-width="2.0952" stroke-linecap="round"/>
 <path stroke="#8c8c8c" stroke-linejoin="round" opacity="1" d="M98.8655,78.1032L99.9131,78.1032" fill="none" stroke-width="2.0952" stroke-linecap="round"/>
 <path stroke="#ff0000" stroke-linejoin="round" opacity="0.3" d="M98.8655,78.1032L99.9131,78.1032" fill="none" stroke-width="2.0952" stroke-linecap="round"/>
 <g partID="64930">
  <g transform="translate(99.9607,43.9356)">
   <g transform="matrix(-1,0,0,-1,0,0)">
    <g id="breadboard" >
     <rect width="0.72" id="connector0pin"  y="2.5848" x="0.36" fill="none" height="0.72"/>
     <rect width="0.72" id="connector1pin"  y="2.5848" x="29.8202" fill="none" height="0.72"/>
     <line stroke="#8C8C8C" x2="2.0952" id="connector0leg"  x1="1.0476" y1="3.6324" fill="none" y2="3.6324" stroke-width="2.0952" stroke-linecap="round"/>
     <line stroke="#8C8C8C" x2="28.805" id="connector1leg"  x1="29.8526" y1="3.6324" fill="none" y2="3.6324" stroke-width="2.0952" stroke-linecap="round"/>
     <path stroke="#8C8C8C"  d="M1.0476,3.6324l28.3666,0" fill="none" stroke-width="2.0952"/>
     <path id="body"  d="M10.2478,0.49536c-0.36,-0.1656,-0.9792,-0.2952,-1.3752,-0.2952l-1.9872,0c-0.396,0,-0.72,0.324,-0.72,0.72l0,5.35608c0,0.39672,0.324,0.72,0.72,0.72l1.9872,0c0.396,0,1.0152,-0.13608,1.3752,-0.2952l0.072,-0.03528c0.36,-0.1656,0.9792,-0.2952,1.3752,-0.2952l7.1856,0c0.39672,0,1.01448,0.13608,1.37448,0.2952l0.07272,0.03528c0.36,0.1656,0.97776,0.2952,1.3752,0.2952l1.9872,0c0.39744,0,0.72,-0.32328,0.72,-0.72L24.4102,0.92016c0,-0.396,-0.32256,-0.72,-0.72,-0.72l-1.9872,0c-0.39744,0,-1.0152,0.1368,-1.3752,0.2952l-0.07272,0.036c-0.36,0.1656,-0.97776,0.2952,-1.37448,0.2952l-7.1856,0c-0.396,0,-1.0152,-0.1368,-1.3752,-0.2952L10.2478,0.49536z" fill="#D9B477"/>
     <rect width="0.70272" id="gold_band"  y="0.19368" x="22.019" fill="#ad9f4e" height="6.79536"/>
     <rect width="1.8504" id="band_rd_multiplier"  y="0.82656" x="16.1726" fill="#8a3d06" height="5.5368"/>
     <rect width="1.8504" id="band_2_nd"  y="0.82656" x="12.4726" fill="#c40808" height="5.5368"/>
     <path id="band_1_st"  d="M10.6286,0.63936c-0.1152,-0.036,-0.2232,-0.072,-0.3096,-0.1152l-0.072,-0.036c-0.36,-0.16488,-0.9792,-0.2952,-1.3752,-0.2952l-0.0864,0l0,6.79608l0.0864,0c0.396,0,1.0152,-0.13608,1.3752,-0.2952l0.072,-0.03528c0.0864,-0.04464,0.1944,-0.07992,0.3096,-0.1152L10.6286,0.63936z" fill="#c40808"/>
     <path id="Shadow" opacity="0.3"  d="M23.711,4.0896L23.711,4.0896c0,0.37944,-0.13032,0.69912,-0.2952,0.69912l-1.9224,0c-0.38016,0,-0.97776,-0.05616,-1.33272,-0.1224L20.088,4.65048c-0.34488,-0.0648,-0.94896,-0.1224,-1.33344,-0.1224L11.808,4.52808c-0.3816,0,-0.9792,0.0576,-1.332,0.1224l-0.072,0.01512c-0.3456,0.06552,-0.9432,0.1224,-1.332,0.1224l-0.3168,0l-1.0008,0l-0.3096,0c-0.3816,0,-0.6984,0.29376,-0.6984,0.64512l0,0.24696L6.7464,5.8392l0,0.1728c0,0.36,0.3168,0.64512,0.6984,0.64512l1.62,0c0.3816,0,0.9792,-0.1224,1.332,-0.26712l0.072,-0.02808c0.3456,-0.14112,0.9504,-0.26496,1.332,-0.26496l6.94656,0c0.37944,0,0.97704,0.12384,1.33416,0.26568l0.07416,0.02808c0.34488,0.14472,0.94464,0.26712,1.33344,0.26712l2.2248,0c0.38088,0,0.69912,-0.2952,0.69912,-0.64512L24.413,5.472L24.413,4.49928L24.413,2.65536C24.1358,2.76336,23.711,3.06576,23.711,4.0896z"/>
     <rect width="0.70272" id="ShadowExtra" opacity="0.4"  y="3.48336" x="22.019" height="3.15288"/>
     <path id="ReflexRight" opacity="0.25"  d="M19.751,1.08576c0.22968,0,0.49104,-0.1008,0.6624,-0.1728c0.2016,-0.0792,0.57672,-0.144,0.96624,-0.144l1.46088,0c0.22464,0,0.22464,0.2448,0.22464,0.3744c0,0.1296,-0.01512,0.3816,-0.22464,0.3816l-3.06,0c-0.10728,0,-0.2304,-0.1152,-0.2304,-0.22392C19.5566,1.21536,19.6286,1.08576,19.751,1.08576z" fill="#FFFFFF"/>
     <circle id="ReflexLeft" opacity="0.35"  cy="1.13616" fill="#FFFFFF" cx="6.99984" r="0.432"/>
     <rect width="0.70272" id="Reflex_gold" opacity="0.5"  y="0.42336" x="22.019" fill="#FFFF33" height="1.62"/>
     <rect width="0.70272" id="Reflex_extra" opacity="0.5"  y="0.78336" x="22.019" fill="#FFFFFF" height="0.7488"/>
    </g>
   </g>
  </g>
 </g>
 <path stroke="#8c8c8c" stroke-linejoin="round" opacity="1" d="M71.1557,40.3032L55.9081,39.9032" fill="none" stroke-width="2.0952" stroke-linecap="round"/>
 <path stroke="#ff0000" stroke-linejoin="round" opacity="0.3" d="M59.9067,40.0081L55.9081,39.9032" fill="none" stroke-width="2.0952" stroke-linecap="round"/>
 <path stroke="#8c8c8c" stroke-linejoin="round" opacity="1" d="M97.8655,40.3032L98.9131,40.3032" fill="none" stroke-width="2.0952" stroke-linecap="round"/>
 <path stroke="#ff0000" stroke-linejoin="round" opacity="0.3" d="M97.8655,40.3032L98.9131,40.3032" fill="none" stroke-width="2.0952" stroke-linecap="round"/>
 <g partID="64300">
  <g transform="translate(98.3607,12.9356)">
   <g transform="matrix(-1,0,0,-1,0,0)">
    <g id="breadboard" >
     <rect width="0.72" id="connector0pin"  y="2.5848" x="0.36" fill="none" height="0.72"/>
     <rect width="0.72" id="connector1pin"  y="2.5848" x="29.8202" fill="none" height="0.72"/>
     <line stroke="#8C8C8C" x2="2.0952" id="connector0leg"  x1="1.0476" y1="3.6324" fill="none" y2="3.6324" stroke-width="2.0952" stroke-linecap="round"/>
     <line stroke="#8C8C8C" x2="28.805" id="connector1leg"  x1="29.8526" y1="3.6324" fill="none" y2="3.6324" stroke-width="2.0952" stroke-linecap="round"/>
     <path stroke="#8C8C8C"  d="M1.0476,3.6324l28.3666,0" fill="none" stroke-width="2.0952"/>
     <path id="body"  d="M10.2478,0.49536c-0.36,-0.1656,-0.9792,-0.2952,-1.3752,-0.2952l-1.9872,0c-0.396,0,-0.72,0.324,-0.72,0.72l0,5.35608c0,0.39672,0.324,0.72,0.72,0.72l1.9872,0c0.396,0,1.0152,-0.13608,1.3752,-0.2952l0.072,-0.03528c0.36,-0.1656,0.9792,-0.2952,1.3752,-0.2952l7.1856,0c0.39672,0,1.01448,0.13608,1.37448,0.2952l0.07272,0.03528c0.36,0.1656,0.97776,0.2952,1.3752,0.2952l1.9872,0c0.39744,0,0.72,-0.32328,0.72,-0.72L24.4102,0.92016c0,-0.396,-0.32256,-0.72,-0.72,-0.72l-1.9872,0c-0.39744,0,-1.0152,0.1368,-1.3752,0.2952l-0.07272,0.036c-0.36,0.1656,-0.97776,0.2952,-1.37448,0.2952l-7.1856,0c-0.396,0,-1.0152,-0.1368,-1.3752,-0.2952L10.2478,0.49536z" fill="#D9B477"/>
     <rect width="0.70272" id="gold_band"  y="0.19368" x="22.019" fill="#ad9f4e" height="6.79536"/>
     <rect width="1.8504" id="band_rd_multiplier"  y="0.82656" x="16.1726" fill="#8a3d06" height="5.5368"/>
     <rect width="1.8504" id="band_2_nd"  y="0.82656" x="12.4726" fill="#c40808" height="5.5368"/>
     <path id="band_1_st"  d="M10.6286,0.63936c-0.1152,-0.036,-0.2232,-0.072,-0.3096,-0.1152l-0.072,-0.036c-0.36,-0.16488,-0.9792,-0.2952,-1.3752,-0.2952l-0.0864,0l0,6.79608l0.0864,0c0.396,0,1.0152,-0.13608,1.3752,-0.2952l0.072,-0.03528c0.0864,-0.04464,0.1944,-0.07992,0.3096,-0.1152L10.6286,0.63936z" fill="#c40808"/>
     <path id="Shadow" opacity="0.3"  d="M23.711,4.0896L23.711,4.0896c0,0.37944,-0.13032,0.69912,-0.2952,0.69912l-1.9224,0c-0.38016,0,-0.97776,-0.05616,-1.33272,-0.1224L20.088,4.65048c-0.34488,-0.0648,-0.94896,-0.1224,-1.33344,-0.1224L11.808,4.52808c-0.3816,0,-0.9792,0.0576,-1.332,0.1224l-0.072,0.01512c-0.3456,0.06552,-0.9432,0.1224,-1.332,0.1224l-0.3168,0l-1.0008,0l-0.3096,0c-0.3816,0,-0.6984,0.29376,-0.6984,0.64512l0,0.24696L6.7464,5.8392l0,0.1728c0,0.36,0.3168,0.64512,0.6984,0.64512l1.62,0c0.3816,0,0.9792,-0.1224,1.332,-0.26712l0.072,-0.02808c0.3456,-0.14112,0.9504,-0.26496,1.332,-0.26496l6.94656,0c0.37944,0,0.97704,0.12384,1.33416,0.26568l0.07416,0.02808c0.34488,0.14472,0.94464,0.26712,1.33344,0.26712l2.2248,0c0.38088,0,0.69912,-0.2952,0.69912,-0.64512L24.413,5.472L24.413,4.49928L24.413,2.65536C24.1358,2.76336,23.711,3.06576,23.711,4.0896z"/>
     <rect width="0.70272" id="ShadowExtra" opacity="0.4"  y="3.48336" x="22.019" height="3.15288"/>
     <path id="ReflexRight" opacity="0.25"  d="M19.751,1.08576c0.22968,0,0.49104,-0.1008,0.6624,-0.1728c0.2016,-0.0792,0.57672,-0.144,0.96624,-0.144l1.46088,0c0.22464,0,0.22464,0.2448,0.22464,0.3744c0,0.1296,-0.01512,0.3816,-0.22464,0.3816l-3.06,0c-0.10728,0,-0.2304,-0.1152,-0.2304,-0.22392C19.5566,1.21536,19.6286,1.08576,19.751,1.08576z" fill="#FFFFFF"/>
     <circle id="ReflexLeft" opacity="0.35"  cy="1.13616" fill="#FFFFFF" cx="6.99984" r="0.432"/>
     <rect width="0.70272" id="Reflex_gold" opacity="0.5"  y="0.42336" x="22.019" fill="#FFFF33" height="1.62"/>
     <rect width="0.70272" id="Reflex_extra" opacity="0.5"  y="0.78336" x="22.019" fill="#FFFFFF" height="0.7488"/>
    </g>
   </g>
  </g>
 </g>
 <path stroke="#8c8c8c" stroke-linejoin="round" opacity="1" d="M69.5557,9.30324L55.3081,3.50324" fill="none" stroke-width="2.0952" stroke-linecap="round"/>
 <path stroke="#ff0000" stroke-linejoin="round" opacity="0.3" d="M59.0129,5.0114L55.3081,3.50324" fill="none" stroke-width="2.0952" stroke-linecap="round"/>
 <path stroke="#8c8c8c" stroke-linejoin="round" opacity="1" d="M96.2655,9.30324L97.3131,9.30324" fill="none" stroke-width="2.0952" stroke-linecap="round"/>
 <path stroke="#ff0000" stroke-linejoin="round" opacity="0.3" d="M96.2655,9.30324L97.3131,9.30324" fill="none" stroke-width="2.0952" stroke-linecap="round"/>
 <g partID="65010">
  <g transform="translate(145.945,128.3)">
   <g transform="matrix(0,-1,-1,0,0,0)">
    <g id="breadboard" >
     <rect width="2.151" id="connector0pin"  y="25.421" x="3.45101" fill="none" height="0.72"/>
     <rect width="2.154" id="connector1pin"  y="25.421" x="10.651" fill="none" height="0.72"/>
     <g stroke="#8C8C8C" x2="4.527" id="connector0leg"  x1="4.527" y1="29.207" fill="none" y2="53.822" stroke-width="1.988" stroke-linecap="round"/>
     <g stroke="#8C8C8C" x2="11.729" id="connector1leg"  x1="11.729" y1="29.207" fill="none" y2="53.822" stroke-width="1.988" stroke-linecap="round"/>
     <rect width="2.151"  y="19.379" x="3.45101" fill="#8C8C8C" height="9.82801"/>
     <path  d="M12.805,29.207c0,-1.174,-1.065,-2.103,-2.089,-2.992c-0.416001,-0.367,-1.199,-1.001,-1.199,-1.424L9.51701,19.32L7.35601,19.32L7.35601,25.1c0,1.059,0.947001,1.879,1.946,2.748c0.444001,0.377,1.349,1.25,1.349,1.771" fill="#8C8C8C"/>
     <g id="g12" >
      <path id="color_path14" opacity="0.3"  d="M11.694,14.099L11.694,9.80001c0,-2.845,-2.303,-5.153,-5.15101,-5.153C3.69801,4.647,1.39,6.951,1.39,9.80001l0,9.92101c1.071,1.201,2.979,2.001,5.15301,2.001c3.35901,0,6.08301,-1.902,6.08301,-4.26l0,-1.107C12.626,15.525,12.281,14.754,11.694,14.099z" fill="#ff0000" enable-background="new    "/>
      <path id="path16" opacity="0.5"  d="M11.694,14.099L11.694,9.80001c0,-2.845,-2.303,-5.153,-5.15101,-5.153C3.69801,4.647,1.39,6.951,1.39,9.80001l0,9.92101c1.071,1.201,2.979,2.001,5.15301,2.001c3.35901,0,6.08301,-1.902,6.08301,-4.26l0,-1.107C12.626,15.525,12.281,14.754,11.694,14.099z" fill="#E6E6E6" enable-background="new    "/>
      <path id="path18" opacity="0.9"  d="M11.694,14.099l0,2.257c0,1.991,-2.301,3.608,-5.15101,3.608c-2.845,0,-5.15301,-1.612,-5.15301,-3.608l0,2.257l0,1.109c1.071,1.2,2.979,2,5.15301,2c3.35901,0,6.08301,-1.902,6.08301,-4.26l0,-1.106C12.626,15.525,12.281,14.754,11.694,14.099z" fill="#D1D1D1" enable-background="new    "/>
      <path id="color_path20" opacity="0.7"  d="M11.694,14.099l0,2.257c0,1.991,-2.301,3.608,-5.15101,3.608c-2.845,0,-5.15301,-1.612,-5.15301,-3.608l0,2.257l0,1.109c1.071,1.2,2.979,2,5.15301,2c3.35901,0,6.08301,-1.902,6.08301,-4.26l0,-1.106C12.626,15.525,12.281,14.754,11.694,14.099z" fill="#ff0000" enable-background="new    "/>
      <path id="color_path22" opacity="0.25"  d="M11.694,14.099l0,2.257c0,1.991,-2.301,3.608,-5.15101,3.608c-2.845,0,-5.15301,-1.612,-5.15301,-3.608l0,2.257c1.071,1.2,2.979,2.001,5.15301,2.001c3.35901,0,6.08301,-1.903,6.08301,-4.259C12.626,15.525,12.281,14.754,11.694,14.099z" fill="#ff0000" enable-background="new    "/>
      <ellipse id="ellipse24" opacity="0.25"  cy="16.356" ry="3.606" fill="#E6E6E6" cx="6.54301" enable-background="new    " rx="5.15301"/>
      <ellipse id="color_ellipse26" opacity="0.25"  cy="16.356" ry="3.606" fill="#ff0000" cx="6.54301" enable-background="new    " rx="5.15301"/>
      <polygon id="polygon28"  fill="#666666" points="2.991,11.661,2.991,16.355,3.71401,16.355,3.71401,14.167,5.76301,14.167,8.66801,11.048,3.86701,11.048"/>
      <polygon id="polygon30"  fill="#666666" points="9.22601,10.844,9.54401,11.214,6.77801,14.167,9.43101,14.167,9.43101,16.355,10.095,16.355,10.095,10.844"/>
      <path id="color_path32" opacity="0.65"  d="M11.694,14.099L11.694,9.80001c0,-2.845,-2.303,-5.153,-5.15101,-5.153C3.69801,4.647,1.39,6.951,1.39,9.80001l0,9.92101c1.071,1.201,2.979,2.001,5.15301,2.001c3.35901,0,6.08301,-1.902,6.08301,-4.26l0,-1.107C12.626,15.525,12.281,14.754,11.694,14.099z" fill="#ff0000" enable-background="new    "/>
      <path id="path34" opacity="0.5"  d="M8.94301,7.376l1.043,-0.199C9.37401,6.354,8.47301,5.754,7.41101,5.55l0.186,0.786C8.15201,6.532,8.61901,6.903,8.94301,7.376z" fill="#FFFFFF" enable-background="new    "/>
      <path id="path36" opacity="0.5"  d="M1.948,19.132l0,1.104c0.472001,0.385,1.042,0.71,1.677,0.957001l0,-1.107C2.988,19.841,2.422,19.518,1.948,19.132z" fill="#FFFFFF" enable-background="new    "/>
      <path id="path38" opacity="0.5"  d="M9.44001,19.338c-0.186,0.089,-0.385001,0.167,-0.585001,0.239c-0.0420001,0.015,-0.0860001,0.03,-0.13,0.043c-0.410001,0.131,-0.844001,0.231,-1.305,0.287c-0.0540001,0.007,-0.11,0.015,-0.164,0.015c-0.233,0.021,-0.468001,0.042,-0.706001,0.042c-0.108,0,-0.223,-0.012,-0.343001,-0.018c-0.873001,-0.042,-1.694,-0.229,-2.397,-0.537l0,-6.098L3.81001,9.80301c0,-1.069,0.616001,-1.984,1.507,-2.435L5.30201,7.33l-0.907001,-1.1C3.181,6.959,2.367,8.281,2.367,9.80101l0,8.653c-0.0360001,-0.035,-0.224,-0.224,-0.349001,-0.384l-0.224,0.499c1.019,1.077,2.769,1.789,4.75701,1.789c1.222,0,2.354,-0.271,3.28001,-0.728l-0.383001,-0.298C9.44001,19.338,9.44001,19.338,9.44001,19.338z" fill="#FFFFFF" enable-background="new    "/>
     </g>
    </g>
   </g>
  </g>
 </g>
 <path stroke="#8c8c8c" stroke-linejoin="round" opacity="1" d="M116.738,116.571L100.908,116.241" fill="none" stroke-width="1.988" stroke-linecap="round"/>
 <path stroke="#ff0000" stroke-linejoin="round" opacity="0.3" d="M104.907,116.324L100.908,116.241" fill="none" stroke-width="1.988" stroke-linecap="round"/>
 <path stroke="#8c8c8c" stroke-linejoin="round" opacity="1" d="M116.738,123.773L55.492,126.302" fill="none" stroke-width="1.988" stroke-linecap="round"/>
 <path stroke="#ff0000" stroke-linejoin="round" opacity="0.3" d="M59.4886,126.137L55.492,126.302" fill="none" stroke-width="1.988" stroke-linecap="round"/>
 <g partID="64970">
  <g transform="translate(143.945,90.5)">
   <g transform="matrix(0,-1,-1,0,0,0)">
    <g id="breadboard" >
     <rect width="2.151" id="connector0pin"  y="25.421" x="3.45101" fill="none" height="0.72"/>
     <rect width="2.154" id="connector1pin"  y="25.421" x="10.651" fill="none" height="0.72"/>
     <g stroke="#8C8C8C" x2="4.527" id="connector0leg"  x1="4.527" y1="29.207" fill="none" y2="53.822" stroke-width="1.988" stroke-linecap="round"/>
     <g stroke="#8C8C8C" x2="11.729" id="connector1leg"  x1="11.729" y1="29.207" fill="none" y2="53.822" stroke-width="1.988" stroke-linecap="round"/>
     <rect width="2.151"  y="19.379" x="3.45101" fill="#8C8C8C" height="9.82801"/>
     <path  d="M12.805,29.207c0,-1.174,-1.065,-2.103,-2.089,-2.992c-0.416001,-0.367,-1.199,-1.001,-1.199,-1.424L9.51701,19.32L7.35601,19.32L7.35601,25.1c0,1.059,0.947001,1.879,1.946,2.748c0.444001,0.377,1.349,1.25,1.349,1.771" fill="#8C8C8C"/>
     <g id="g12" >
      <path id="color_path14" opacity="0.3"  d="M11.694,14.099L11.694,9.80001c0,-2.845,-2.303,-5.153,-5.15101,-5.153C3.69801,4.647,1.39,6.951,1.39,9.80001l0,9.92101c1.071,1.201,2.979,2.001,5.15301,2.001c3.35901,0,6.08301,-1.902,6.08301,-4.26l0,-1.107C12.626,15.525,12.281,14.754,11.694,14.099z" fill="#ff9a35" enable-background="new    "/>
      <path id="path16" opacity="0.5"  d="M11.694,14.099L11.694,9.80001c0,-2.845,-2.303,-5.153,-5.15101,-5.153C3.69801,4.647,1.39,6.951,1.39,9.80001l0,9.92101c1.071,1.201,2.979,2.001,5.15301,2.001c3.35901,0,6.08301,-1.902,6.08301,-4.26l0,-1.107C12.626,15.525,12.281,14.754,11.694,14.099z" fill="#E6E6E6" enable-background="new    "/>
      <path id="path18" opacity="0.9"  d="M11.694,14.099l0,2.257c0,1.991,-2.301,3.608,-5.15101,3.608c-2.845,0,-5.15301,-1.612,-5.15301,-3.608l0,2.257l0,1.109c1.071,1.2,2.979,2,5.15301,2c3.35901,0,6.08301,-1.902,6.08301,-4.26l0,-1.106C12.626,15.525,12.281,14.754,11.694,14.099z" fill="#D1D1D1" enable-background="new    "/>
      <path id="color_path20" opacity="0.7"  d="M11.694,14.099l0,2.257c0,1.991,-2.301,3.608,-5.15101,3.608c-2.845,0,-5.15301,-1.612,-5.15301,-3.608l0,2.257l0,1.109c1.071,1.2,2.979,2,5.15301,2c3.35901,0,6.08301,-1.902,6.08301,-4.26l0,-1.106C12.626,15.525,12.281,14.754,11.694,14.099z" fill="#ff9a35" enable-background="new    "/>
      <path id="color_path22" opacity="0.25"  d="M11.694,14.099l0,2.257c0,1.991,-2.301,3.608,-5.15101,3.608c-2.845,0,-5.15301,-1.612,-5.15301,-3.608l0,2.257c1.071,1.2,2.979,2.001,5.15301,2.001c3.35901,0,6.08301,-1.903,6.08301,-4.259C12.626,15.525,12.281,14.754,11.694,14.099z" fill="#ff9a35" enable-background="new    "/>
      <ellipse id="ellipse24" opacity="0.25"  cy="16.356" ry="3.606" fill="#E6E6E6" cx="6.54301" enable-background="new    " rx="5.15301"/>
      <ellipse id="color_ellipse26" opacity="0.25"  cy="16.356" ry="3.606" fill="#ff9a35" cx="6.54301" enable-background="new    " rx="5.15301"/>
      <polygon id="polygon28"  fill="#666666" points="2.991,11.661,2.991,16.355,3.71401,16.355,3.71401,14.167,5.76301,14.167,8.66801,11.048,3.86701,11.048"/>
      <polygon id="polygon30"  fill="#666666" points="9.22601,10.844,9.54401,11.214,6.77801,14.167,9.43101,14.167,9.43101,16.355,10.095,16.355,10.095,10.844"/>
      <path id="color_path32" opacity="0.65"  d="M11.694,14.099L11.694,9.80001c0,-2.845,-2.303,-5.153,-5.15101,-5.153C3.69801,4.647,1.39,6.951,1.39,9.80001l0,9.92101c1.071,1.201,2.979,2.001,5.15301,2.001c3.35901,0,6.08301,-1.902,6.08301,-4.26l0,-1.107C12.626,15.525,12.281,14.754,11.694,14.099z" fill="#ff9a35" enable-background="new    "/>
      <path id="path34" opacity="0.5"  d="M8.94301,7.376l1.043,-0.199C9.37401,6.354,8.47301,5.754,7.41101,5.55l0.186,0.786C8.15201,6.532,8.61901,6.903,8.94301,7.376z" fill="#FFFFFF" enable-background="new    "/>
      <path id="path36" opacity="0.5"  d="M1.948,19.132l0,1.104c0.472001,0.385,1.042,0.71,1.677,0.957001l0,-1.107C2.988,19.841,2.422,19.518,1.948,19.132z" fill="#FFFFFF" enable-background="new    "/>
      <path id="path38" opacity="0.5"  d="M9.44001,19.338c-0.186,0.089,-0.385001,0.167,-0.585001,0.239c-0.0420001,0.015,-0.0860001,0.03,-0.13,0.043c-0.410001,0.131,-0.844001,0.231,-1.305,0.287c-0.0540001,0.007,-0.11,0.015,-0.164,0.015c-0.233,0.021,-0.468001,0.042,-0.706001,0.042c-0.108,0,-0.223,-0.012,-0.343001,-0.018c-0.873001,-0.042,-1.694,-0.229,-2.397,-0.537l0,-6.098L3.81001,9.80301c0,-1.069,0.616001,-1.984,1.507,-2.435L5.30201,7.33l-0.907001,-1.1C3.181,6.959,2.367,8.281,2.367,9.80101l0,8.653c-0.0360001,-0.035,-0.224,-0.224,-0.349001,-0.384l-0.224,0.499c1.019,1.077,2.769,1.789,4.75701,1.789c1.222,0,2.354,-0.271,3.28001,-0.728l-0.383001,-0.298C9.44001,19.338,9.44001,19.338,9.44001,19.338z" fill="#FFFFFF" enable-background="new    "/>
     </g>
    </g>
   </g>
  </g>
 </g>
 <path stroke="#8c8c8c" stroke-linejoin="round" opacity="1" d="M114.738,78.771L98.9081,77.8408" fill="none" stroke-width="1.988" stroke-linecap="round"/>
 <path stroke="#ff0000" stroke-linejoin="round" opacity="0.3" d="M102.901,78.0755L98.9081,77.8408" fill="none" stroke-width="1.988" stroke-linecap="round"/>
 <path stroke="#8c8c8c" stroke-linejoin="round" opacity="1" d="M114.738,85.973L54.892,90.1019" fill="none" stroke-width="1.988" stroke-linecap="round"/>
 <path stroke="#ff0000" stroke-linejoin="round" opacity="0.3" d="M58.8825,89.8266L54.892,90.1019" fill="none" stroke-width="1.988" stroke-linecap="round"/>
 <g partID="64950">
  <g transform="translate(141.545,52.7)">
   <g transform="matrix(0,-1,-1,0,0,0)">
    <g id="breadboard" >
     <rect width="2.151" id="connector0pin"  y="25.421" x="3.45101" fill="none" height="0.72"/>
     <rect width="2.154" id="connector1pin"  y="25.421" x="10.651" fill="none" height="0.72"/>
     <g stroke="#8C8C8C" x2="4.527" id="connector0leg"  x1="4.527" y1="29.207" fill="none" y2="53.822" stroke-width="1.988" stroke-linecap="round"/>
     <g stroke="#8C8C8C" x2="11.729" id="connector1leg"  x1="11.729" y1="29.207" fill="none" y2="53.822" stroke-width="1.988" stroke-linecap="round"/>
     <rect width="2.151"  y="19.379" x="3.45101" fill="#8C8C8C" height="9.82801"/>
     <path  d="M12.805,29.207c0,-1.174,-1.065,-2.103,-2.089,-2.992c-0.416001,-0.367,-1.199,-1.001,-1.199,-1.424L9.51701,19.32L7.35601,19.32L7.35601,25.1c0,1.059,0.947001,1.879,1.946,2.748c0.444001,0.377,1.349,1.25,1.349,1.771" fill="#8C8C8C"/>
     <g id="g12" >
      <path id="color_path14" opacity="0.3"  d="M11.694,14.099L11.694,9.80001c0,-2.845,-2.303,-5.153,-5.15101,-5.153C3.69801,4.647,1.39,6.951,1.39,9.80001l0,9.92101c1.071,1.201,2.979,2.001,5.15301,2.001c3.35901,0,6.08301,-1.902,6.08301,-4.26l0,-1.107C12.626,15.525,12.281,14.754,11.694,14.099z" fill="#ffea00" enable-background="new    "/>
      <path id="path16" opacity="0.5"  d="M11.694,14.099L11.694,9.80001c0,-2.845,-2.303,-5.153,-5.15101,-5.153C3.69801,4.647,1.39,6.951,1.39,9.80001l0,9.92101c1.071,1.201,2.979,2.001,5.15301,2.001c3.35901,0,6.08301,-1.902,6.08301,-4.26l0,-1.107C12.626,15.525,12.281,14.754,11.694,14.099z" fill="#E6E6E6" enable-background="new    "/>
      <path id="path18" opacity="0.9"  d="M11.694,14.099l0,2.257c0,1.991,-2.301,3.608,-5.15101,3.608c-2.845,0,-5.15301,-1.612,-5.15301,-3.608l0,2.257l0,1.109c1.071,1.2,2.979,2,5.15301,2c3.35901,0,6.08301,-1.902,6.08301,-4.26l0,-1.106C12.626,15.525,12.281,14.754,11.694,14.099z" fill="#D1D1D1" enable-background="new    "/>
      <path id="color_path20" opacity="0.7"  d="M11.694,14.099l0,2.257c0,1.991,-2.301,3.608,-5.15101,3.608c-2.845,0,-5.15301,-1.612,-5.15301,-3.608l0,2.257l0,1.109c1.071,1.2,2.979,2,5.15301,2c3.35901,0,6.08301,-1.902,6.08301,-4.26l0,-1.106C12.626,15.525,12.281,14.754,11.694,14.099z" fill="#ffea00" enable-background="new    "/>
      <path id="color_path22" opacity="0.25"  d="M11.694,14.099l0,2.257c0,1.991,-2.301,3.608,-5.15101,3.608c-2.845,0,-5.15301,-1.612,-5.15301,-3.608l0,2.257c1.071,1.2,2.979,2.001,5.15301,2.001c3.35901,0,6.08301,-1.903,6.08301,-4.259C12.626,15.525,12.281,14.754,11.694,14.099z" fill="#ffea00" enable-background="new    "/>
      <ellipse id="ellipse24" opacity="0.25"  cy="16.356" ry="3.606" fill="#E6E6E6" cx="6.54301" enable-background="new    " rx="5.15301"/>
      <ellipse id="color_ellipse26" opacity="0.25"  cy="16.356" ry="3.606" fill="#ffea00" cx="6.54301" enable-background="new    " rx="5.15301"/>
      <polygon id="polygon28"  fill="#666666" points="2.991,11.661,2.991,16.355,3.71401,16.355,3.71401,14.167,5.76301,14.167,8.66801,11.048,3.86701,11.048"/>
      <polygon id="polygon30"  fill="#666666" points="9.22601,10.844,9.54401,11.214,6.77801,14.167,9.43101,14.167,9.43101,16.355,10.095,16.355,10.095,10.844"/>
      <path id="color_path32" opacity="0.65"  d="M11.694,14.099L11.694,9.80001c0,-2.845,-2.303,-5.153,-5.15101,-5.153C3.69801,4.647,1.39,6.951,1.39,9.80001l0,9.92101c1.071,1.201,2.979,2.001,5.15301,2.001c3.35901,0,6.08301,-1.902,6.08301,-4.26l0,-1.107C12.626,15.525,12.281,14.754,11.694,14.099z" fill="#ffea00" enable-background="new    "/>
      <path id="path34" opacity="0.5"  d="M8.94301,7.376l1.043,-0.199C9.37401,6.354,8.47301,5.754,7.41101,5.55l0.186,0.786C8.15201,6.532,8.61901,6.903,8.94301,7.376z" fill="#FFFFFF" enable-background="new    "/>
      <path id="path36" opacity="0.5"  d="M1.948,19.132l0,1.104c0.472001,0.385,1.042,0.71,1.677,0.957001l0,-1.107C2.988,19.841,2.422,19.518,1.948,19.132z" fill="#FFFFFF" enable-background="new    "/>
      <path id="path38" opacity="0.5"  d="M9.44001,19.338c-0.186,0.089,-0.385001,0.167,-0.585001,0.239c-0.0420001,0.015,-0.0860001,0.03,-0.13,0.043c-0.410001,0.131,-0.844001,0.231,-1.305,0.287c-0.0540001,0.007,-0.11,0.015,-0.164,0.015c-0.233,0.021,-0.468001,0.042,-0.706001,0.042c-0.108,0,-0.223,-0.012,-0.343001,-0.018c-0.873001,-0.042,-1.694,-0.229,-2.397,-0.537l0,-6.098L3.81001,9.80301c0,-1.069,0.616001,-1.984,1.507,-2.435L5.30201,7.33l-0.907001,-1.1C3.181,6.959,2.367,8.281,2.367,9.80101l0,8.653c-0.0360001,-0.035,-0.224,-0.224,-0.349001,-0.384l-0.224,0.499c1.019,1.077,2.769,1.789,4.75701,1.789c1.222,0,2.354,-0.271,3.28001,-0.728l-0.383001,-0.298C9.44001,19.338,9.44001,19.338,9.44001,19.338z" fill="#FFFFFF" enable-background="new    "/>
     </g>
    </g>
   </g>
  </g>
 </g>
 <path stroke="#8c8c8c" stroke-linejoin="round" opacity="1" d="M112.338,40.971L97.9081,40.2408" fill="none" stroke-width="1.988" stroke-linecap="round"/>
 <path stroke="#ff0000" stroke-linejoin="round" opacity="0.3" d="M101.903,40.443L97.9081,40.2408" fill="none" stroke-width="1.988" stroke-linecap="round"/>
 <path stroke="#8c8c8c" stroke-linejoin="round" opacity="1" d="M112.338,48.173L55.092,54.3019" fill="none" stroke-width="1.988" stroke-linecap="round"/>
 <path stroke="#ff0000" stroke-linejoin="round" opacity="0.3" d="M59.0693,53.8761L55.092,54.3019" fill="none" stroke-width="1.988" stroke-linecap="round"/>
 <g partID="62560">
  <g transform="translate(140.145,21.9)">
   <g transform="matrix(0,-1,-1,0,0,0)">
    <g id="breadboard" >
     <rect width="2.151" id="connector0pin"  y="25.421" x="3.45101" fill="none" height="0.72"/>
     <rect width="2.154" id="connector1pin"  y="25.421" x="10.651" fill="none" height="0.72"/>
     <g stroke="#8C8C8C" x2="4.527" id="connector0leg"  x1="4.527" y1="29.207" fill="none" y2="53.822" stroke-width="1.988" stroke-linecap="round"/>
     <g stroke="#8C8C8C" x2="11.729" id="connector1leg"  x1="11.729" y1="29.207" fill="none" y2="53.822" stroke-width="1.988" stroke-linecap="round"/>
     <rect width="2.151"  y="19.379" x="3.45101" fill="#8C8C8C" height="9.82801"/>
     <path  d="M12.805,29.207c0,-1.174,-1.065,-2.103,-2.089,-2.992c-0.416001,-0.367,-1.199,-1.001,-1.199,-1.424L9.51701,19.32L7.35601,19.32L7.35601,25.1c0,1.059,0.947001,1.879,1.946,2.748c0.444001,0.377,1.349,1.25,1.349,1.771" fill="#8C8C8C"/>
     <g id="g12" >
      <path id="color_path14" opacity="0.3"  d="M11.694,14.099L11.694,9.80001c0,-2.845,-2.303,-5.153,-5.15101,-5.153C3.69801,4.647,1.39,6.951,1.39,9.80001l0,9.92101c1.071,1.201,2.979,2.001,5.15301,2.001c3.35901,0,6.08301,-1.902,6.08301,-4.26l0,-1.107C12.626,15.525,12.281,14.754,11.694,14.099z" fill="#00b33b" enable-background="new    "/>
      <path id="path16" opacity="0.5"  d="M11.694,14.099L11.694,9.80001c0,-2.845,-2.303,-5.153,-5.15101,-5.153C3.69801,4.647,1.39,6.951,1.39,9.80001l0,9.92101c1.071,1.201,2.979,2.001,5.15301,2.001c3.35901,0,6.08301,-1.902,6.08301,-4.26l0,-1.107C12.626,15.525,12.281,14.754,11.694,14.099z" fill="#E6E6E6" enable-background="new    "/>
      <path id="path18" opacity="0.9"  d="M11.694,14.099l0,2.257c0,1.991,-2.301,3.608,-5.15101,3.608c-2.845,0,-5.15301,-1.612,-5.15301,-3.608l0,2.257l0,1.109c1.071,1.2,2.979,2,5.15301,2c3.35901,0,6.08301,-1.902,6.08301,-4.26l0,-1.106C12.626,15.525,12.281,14.754,11.694,14.099z" fill="#D1D1D1" enable-background="new    "/>
      <path id="color_path20" opacity="0.7"  d="M11.694,14.099l0,2.257c0,1.991,-2.301,3.608,-5.15101,3.608c-2.845,0,-5.15301,-1.612,-5.15301,-3.608l0,2.257l0,1.109c1.071,1.2,2.979,2,5.15301,2c3.35901,0,6.08301,-1.902,6.08301,-4.26l0,-1.106C12.626,15.525,12.281,14.754,11.694,14.099z" fill="#00b33b" enable-background="new    "/>
      <path id="color_path22" opacity="0.25"  d="M11.694,14.099l0,2.257c0,1.991,-2.301,3.608,-5.15101,3.608c-2.845,0,-5.15301,-1.612,-5.15301,-3.608l0,2.257c1.071,1.2,2.979,2.001,5.15301,2.001c3.35901,0,6.08301,-1.903,6.08301,-4.259C12.626,15.525,12.281,14.754,11.694,14.099z" fill="#00b33b" enable-background="new    "/>
      <ellipse id="ellipse24" opacity="0.25"  cy="16.356" ry="3.606" fill="#E6E6E6" cx="6.54301" enable-background="new    " rx="5.15301"/>
      <ellipse id="color_ellipse26" opacity="0.25"  cy="16.356" ry="3.606" fill="#00b33b" cx="6.54301" enable-background="new    " rx="5.15301"/>
      <polygon id="polygon28"  fill="#666666" points="2.991,11.661,2.991,16.355,3.71401,16.355,3.71401,14.167,5.76301,14.167,8.66801,11.048,3.86701,11.048"/>
      <polygon id="polygon30"  fill="#666666" points="9.22601,10.844,9.54401,11.214,6.77801,14.167,9.43101,14.167,9.43101,16.355,10.095,16.355,10.095,10.844"/>
      <path id="color_path32" opacity="0.65"  d="M11.694,14.099L11.694,9.80001c0,-2.845,-2.303,-5.153,-5.15101,-5.153C3.69801,4.647,1.39,6.951,1.39,9.80001l0,9.92101c1.071,1.201,2.979,2.001,5.15301,2.001c3.35901,0,6.08301,-1.902,6.08301,-4.26l0,-1.107C12.626,15.525,12.281,14.754,11.694,14.099z" fill="#00b33b" enable-background="new    "/>
      <path id="path34" opacity="0.5"  d="M8.94301,7.376l1.043,-0.199C9.37401,6.354,8.47301,5.754,7.41101,5.55l0.186,0.786C8.15201,6.532,8.61901,6.903,8.94301,7.376z" fill="#FFFFFF" enable-background="new    "/>
      <path id="path36" opacity="0.5"  d="M1.948,19.132l0,1.104c0.472001,0.385,1.042,0.71,1.677,0.957001l0,-1.107C2.988,19.841,2.422,19.518,1.948,19.132z" fill="#FFFFFF" enable-background="new    "/>
      <path id="path38" opacity="0.5"  d="M9.44001,19.338c-0.186,0.089,-0.385001,0.167,-0.585001,0.239c-0.0420001,0.015,-0.0860001,0.03,-0.13,0.043c-0.410001,0.131,-0.844001,0.231,-1.305,0.287c-0.0540001,0.007,-0.11,0.015,-0.164,0.015c-0.233,0.021,-0.468001,0.042,-0.706001,0.042c-0.108,0,-0.223,-0.012,-0.343001,-0.018c-0.873001,-0.042,-1.694,-0.229,-2.397,-0.537l0,-6.098L3.81001,9.80301c0,-1.069,0.616001,-1.984,1.507,-2.435L5.30201,7.33l-0.907001,-1.1C3.181,6.959,2.367,8.281,2.367,9.80101l0,8.653c-0.0360001,-0.035,-0.224,-0.224,-0.349001,-0.384l-0.224,0.499c1.019,1.077,2.769,1.789,4.75701,1.789c1.222,0,2.354,-0.271,3.28001,-0.728l-0.383001,-0.298C9.44001,19.338,9.44001,19.338,9.44001,19.338z" fill="#FFFFFF" enable-background="new    "/>
     </g>
    </g>
   </g>
  </g>
 </g>
 <path stroke="#8c8c8c" stroke-linejoin="round" opacity="1" d="M110.938,10.171L96.5081,9.04082" fill="none" stroke-width="1.988" stroke-linecap="round"/>
 <path stroke="#ff0000" stroke-linejoin="round" opacity="0.3" d="M100.496,9.35316L96.5081,9.04082" fill="none" stroke-width="1.988" stroke-linecap="round"/>
 <path stroke="#8c8c8c" stroke-linejoin="round" opacity="1" d="M110.938,17.373L55.292,18.1019" fill="none" stroke-width="1.988" stroke-linecap="round"/>
 <path stroke="#ff0000" stroke-linejoin="round" opacity="0.3" d="M59.2916,18.0495L55.292,18.1019" fill="none" stroke-width="1.988" stroke-linecap="round"/>
</svg>
